# xmcd CD database file
#
# Track frame offsets:
#	150
#	19375
#	41013
#	65748
#	88075
#	103655
#	129011
#	142776
#	177211
#
# Disc length: 2742 seconds
#
# Revision: 0
# Processed by: cddbd v1.5.2PL0 Copyright (c) Steve Scherf et al.
# Submitted via: CDex 1.51
#
DISCID=740ab409
DTITLE=Melvins - The Bride Screamed Murder
DYEAR=2010
DGENRE=Salsa
TTITLE0=The Water Glass
TTITLE1=Evil New War God
TTITLE2=Pig House
TTITLE3=I'll Finish You Off
TTITLE4=Electric Flower
TTITLE5=Hospital Up
TTITLE6=Inhumanity and Death
TTITLE7=My Generation
TTITLE8=PG x 3
EXTD=YEAR: 2010
EXTT0=
EXTT1=
EXTT2=
EXTT3=
EXTT4=
EXTT5=
EXTT6=
EXTT7=
EXTT8=
PLAYORDER=
